<mxfile host="app.diagrams.net" agent="Mozilla/5.0 (Macintosh; Intel Mac OS X 10_15_7) AppleWebKit/605.1.15 (KHTML, like Gecko) Version/18.3 Safari/605.1.15" version="26.1.0">
  <diagram name="Page-1" id="8L8M4VpmIAZYsUqmWHEA">
    <mxGraphModel dx="1272" dy="723" grid="1" gridSize="10" guides="1" tooltips="1" connect="1" arrows="1" fold="1" page="1" pageScale="1" pageWidth="850" pageHeight="1100" math="0" shadow="0">
      <root>
        <mxCell id="0" />
        <mxCell id="1" parent="0" />
        <mxCell id="9UJNmBJPEoQsImGt_u-B-37" value="" style="edgeStyle=orthogonalEdgeStyle;rounded=0;orthogonalLoop=1;jettySize=auto;html=1;exitX=0.5;exitY=1;exitDx=0;exitDy=0;entryX=0;entryY=0.25;entryDx=0;entryDy=0;" edge="1" parent="1" source="9UJNmBJPEoQsImGt_u-B-26" target="9UJNmBJPEoQsImGt_u-B-29">
          <mxGeometry relative="1" as="geometry" />
        </mxCell>
        <mxCell id="9UJNmBJPEoQsImGt_u-B-42" value="30" style="edgeLabel;html=1;align=center;verticalAlign=middle;resizable=0;points=[];" vertex="1" connectable="0" parent="9UJNmBJPEoQsImGt_u-B-37">
          <mxGeometry x="0.935" y="4" relative="1" as="geometry">
            <mxPoint x="-13" as="offset" />
          </mxGeometry>
        </mxCell>
        <mxCell id="9UJNmBJPEoQsImGt_u-B-38" style="edgeStyle=orthogonalEdgeStyle;rounded=0;orthogonalLoop=1;jettySize=auto;html=1;exitX=0.5;exitY=1;exitDx=0;exitDy=0;entryX=0;entryY=0.25;entryDx=0;entryDy=0;" edge="1" parent="1" source="9UJNmBJPEoQsImGt_u-B-26" target="9UJNmBJPEoQsImGt_u-B-30">
          <mxGeometry relative="1" as="geometry" />
        </mxCell>
        <mxCell id="9UJNmBJPEoQsImGt_u-B-43" value="30" style="edgeLabel;html=1;align=center;verticalAlign=middle;resizable=0;points=[];" vertex="1" connectable="0" parent="9UJNmBJPEoQsImGt_u-B-38">
          <mxGeometry x="0.9049" y="2" relative="1" as="geometry">
            <mxPoint x="-5" as="offset" />
          </mxGeometry>
        </mxCell>
        <mxCell id="9UJNmBJPEoQsImGt_u-B-39" style="edgeStyle=orthogonalEdgeStyle;rounded=0;orthogonalLoop=1;jettySize=auto;html=1;exitX=0.5;exitY=1;exitDx=0;exitDy=0;entryX=0;entryY=0.25;entryDx=0;entryDy=0;" edge="1" parent="1" source="9UJNmBJPEoQsImGt_u-B-26" target="9UJNmBJPEoQsImGt_u-B-31">
          <mxGeometry relative="1" as="geometry" />
        </mxCell>
        <mxCell id="9UJNmBJPEoQsImGt_u-B-44" value="30" style="edgeLabel;html=1;align=center;verticalAlign=middle;resizable=0;points=[];" vertex="1" connectable="0" parent="9UJNmBJPEoQsImGt_u-B-39">
          <mxGeometry x="0.894" y="1" relative="1" as="geometry">
            <mxPoint as="offset" />
          </mxGeometry>
        </mxCell>
        <mxCell id="9UJNmBJPEoQsImGt_u-B-40" style="edgeStyle=orthogonalEdgeStyle;rounded=0;orthogonalLoop=1;jettySize=auto;html=1;exitX=0.5;exitY=1;exitDx=0;exitDy=0;entryX=0;entryY=0.25;entryDx=0;entryDy=0;" edge="1" parent="1" source="9UJNmBJPEoQsImGt_u-B-26" target="9UJNmBJPEoQsImGt_u-B-35">
          <mxGeometry relative="1" as="geometry" />
        </mxCell>
        <mxCell id="9UJNmBJPEoQsImGt_u-B-45" value="30" style="edgeLabel;html=1;align=center;verticalAlign=middle;resizable=0;points=[];" vertex="1" connectable="0" parent="9UJNmBJPEoQsImGt_u-B-40">
          <mxGeometry x="0.9146" y="3" relative="1" as="geometry">
            <mxPoint as="offset" />
          </mxGeometry>
        </mxCell>
        <mxCell id="9UJNmBJPEoQsImGt_u-B-26" value="Battery" style="rounded=1;whiteSpace=wrap;html=1;" vertex="1" parent="1">
          <mxGeometry x="200" y="40" width="160" height="80" as="geometry" />
        </mxCell>
        <mxCell id="9UJNmBJPEoQsImGt_u-B-120" style="edgeStyle=orthogonalEdgeStyle;rounded=0;orthogonalLoop=1;jettySize=auto;html=1;exitX=0.25;exitY=1;exitDx=0;exitDy=0;entryX=0.25;entryY=0;entryDx=0;entryDy=0;" edge="1" parent="1" source="9UJNmBJPEoQsImGt_u-B-28" target="9UJNmBJPEoQsImGt_u-B-97">
          <mxGeometry relative="1" as="geometry" />
        </mxCell>
        <mxCell id="9UJNmBJPEoQsImGt_u-B-121" value="87" style="edgeLabel;html=1;align=center;verticalAlign=middle;resizable=0;points=[];" vertex="1" connectable="0" parent="9UJNmBJPEoQsImGt_u-B-120">
          <mxGeometry x="-0.8332" relative="1" as="geometry">
            <mxPoint as="offset" />
          </mxGeometry>
        </mxCell>
        <mxCell id="9UJNmBJPEoQsImGt_u-B-122" value="Pin 1" style="edgeLabel;html=1;align=center;verticalAlign=middle;resizable=0;points=[];" vertex="1" connectable="0" parent="9UJNmBJPEoQsImGt_u-B-120">
          <mxGeometry x="0.7668" y="-3" relative="1" as="geometry">
            <mxPoint as="offset" />
          </mxGeometry>
        </mxCell>
        <mxCell id="9UJNmBJPEoQsImGt_u-B-128" style="edgeStyle=orthogonalEdgeStyle;rounded=0;orthogonalLoop=1;jettySize=auto;html=1;exitX=0.75;exitY=1;exitDx=0;exitDy=0;" edge="1" parent="1" source="9UJNmBJPEoQsImGt_u-B-28">
          <mxGeometry relative="1" as="geometry">
            <mxPoint x="230" y="270" as="targetPoint" />
          </mxGeometry>
        </mxCell>
        <mxCell id="9UJNmBJPEoQsImGt_u-B-129" value="86" style="edgeLabel;html=1;align=center;verticalAlign=middle;resizable=0;points=[];" vertex="1" connectable="0" parent="9UJNmBJPEoQsImGt_u-B-128">
          <mxGeometry x="-0.9185" y="-1" relative="1" as="geometry">
            <mxPoint as="offset" />
          </mxGeometry>
        </mxCell>
        <mxCell id="9UJNmBJPEoQsImGt_u-B-28" value="ECU&lt;div&gt;Relay&lt;/div&gt;" style="rounded=1;whiteSpace=wrap;html=1;" vertex="1" parent="1">
          <mxGeometry x="80" y="160" width="120" height="60" as="geometry" />
        </mxCell>
        <mxCell id="9UJNmBJPEoQsImGt_u-B-53" style="edgeStyle=orthogonalEdgeStyle;rounded=0;orthogonalLoop=1;jettySize=auto;html=1;exitX=1;exitY=0.25;exitDx=0;exitDy=0;entryX=0;entryY=0.75;entryDx=0;entryDy=0;" edge="1" parent="1" source="9UJNmBJPEoQsImGt_u-B-29" target="9UJNmBJPEoQsImGt_u-B-52">
          <mxGeometry relative="1" as="geometry" />
        </mxCell>
        <mxCell id="9UJNmBJPEoQsImGt_u-B-60" value="87" style="edgeLabel;html=1;align=center;verticalAlign=middle;resizable=0;points=[];" vertex="1" connectable="0" parent="9UJNmBJPEoQsImGt_u-B-53">
          <mxGeometry x="-0.8299" y="3" relative="1" as="geometry">
            <mxPoint as="offset" />
          </mxGeometry>
        </mxCell>
        <mxCell id="9UJNmBJPEoQsImGt_u-B-29" value="Fuel Pump&lt;div&gt;Relay&lt;/div&gt;" style="rounded=1;whiteSpace=wrap;html=1;" vertex="1" parent="1">
          <mxGeometry x="320" y="280" width="120" height="60" as="geometry" />
        </mxCell>
        <mxCell id="9UJNmBJPEoQsImGt_u-B-30" value="Ignition Relay" style="rounded=1;whiteSpace=wrap;html=1;" vertex="1" parent="1">
          <mxGeometry x="320" y="380" width="120" height="60" as="geometry" />
        </mxCell>
        <mxCell id="9UJNmBJPEoQsImGt_u-B-31" value="Injector&lt;div&gt;Relay&lt;/div&gt;" style="rounded=1;whiteSpace=wrap;html=1;" vertex="1" parent="1">
          <mxGeometry x="320" y="480" width="120" height="60" as="geometry" />
        </mxCell>
        <mxCell id="9UJNmBJPEoQsImGt_u-B-85" style="edgeStyle=orthogonalEdgeStyle;rounded=0;orthogonalLoop=1;jettySize=auto;html=1;exitX=1;exitY=0.25;exitDx=0;exitDy=0;" edge="1" parent="1" source="9UJNmBJPEoQsImGt_u-B-35">
          <mxGeometry relative="1" as="geometry">
            <mxPoint x="520" y="595" as="targetPoint" />
          </mxGeometry>
        </mxCell>
        <mxCell id="9UJNmBJPEoQsImGt_u-B-88" style="edgeStyle=orthogonalEdgeStyle;rounded=0;orthogonalLoop=1;jettySize=auto;html=1;exitX=1;exitY=0.5;exitDx=0;exitDy=0;entryX=0.25;entryY=1;entryDx=0;entryDy=0;" edge="1" parent="1" source="9UJNmBJPEoQsImGt_u-B-35" target="9UJNmBJPEoQsImGt_u-B-82">
          <mxGeometry relative="1" as="geometry">
            <Array as="points">
              <mxPoint x="440" y="600" />
              <mxPoint x="481" y="600" />
              <mxPoint x="481" y="700" />
              <mxPoint x="531" y="700" />
            </Array>
          </mxGeometry>
        </mxCell>
        <mxCell id="9UJNmBJPEoQsImGt_u-B-89" style="edgeStyle=orthogonalEdgeStyle;rounded=0;orthogonalLoop=1;jettySize=auto;html=1;exitX=1;exitY=0.25;exitDx=0;exitDy=0;" edge="1" parent="1" source="9UJNmBJPEoQsImGt_u-B-35">
          <mxGeometry relative="1" as="geometry">
            <mxPoint x="520" y="630" as="targetPoint" />
            <Array as="points">
              <mxPoint x="480" y="595" />
              <mxPoint x="480" y="631" />
            </Array>
          </mxGeometry>
        </mxCell>
        <mxCell id="9UJNmBJPEoQsImGt_u-B-91" value="87" style="edgeLabel;html=1;align=center;verticalAlign=middle;resizable=0;points=[];" vertex="1" connectable="0" parent="9UJNmBJPEoQsImGt_u-B-89">
          <mxGeometry x="-0.8266" y="-3" relative="1" as="geometry">
            <mxPoint y="-3" as="offset" />
          </mxGeometry>
        </mxCell>
        <mxCell id="9UJNmBJPEoQsImGt_u-B-35" value="Cam/Idle/Wideband Relay" style="rounded=1;whiteSpace=wrap;html=1;" vertex="1" parent="1">
          <mxGeometry x="320" y="580" width="120" height="60" as="geometry" />
        </mxCell>
        <mxCell id="9UJNmBJPEoQsImGt_u-B-54" style="edgeStyle=orthogonalEdgeStyle;rounded=0;orthogonalLoop=1;jettySize=auto;html=1;exitX=1;exitY=0.75;exitDx=0;exitDy=0;" edge="1" parent="1" source="9UJNmBJPEoQsImGt_u-B-52">
          <mxGeometry relative="1" as="geometry">
            <mxPoint x="640" y="295" as="targetPoint" />
          </mxGeometry>
        </mxCell>
        <mxCell id="9UJNmBJPEoQsImGt_u-B-52" value="15A" style="shape=process;whiteSpace=wrap;html=1;backgroundOutline=1;" vertex="1" parent="1">
          <mxGeometry x="522.5" y="280" width="35" height="20" as="geometry" />
        </mxCell>
        <mxCell id="9UJNmBJPEoQsImGt_u-B-55" value="Fuel Pump" style="rounded=1;whiteSpace=wrap;html=1;" vertex="1" parent="1">
          <mxGeometry x="640" y="280" width="100" height="40" as="geometry" />
        </mxCell>
        <mxCell id="9UJNmBJPEoQsImGt_u-B-56" style="edgeStyle=orthogonalEdgeStyle;rounded=0;orthogonalLoop=1;jettySize=auto;html=1;exitX=1;exitY=0.25;exitDx=0;exitDy=0;entryX=0;entryY=0.75;entryDx=0;entryDy=0;" edge="1" parent="1" target="9UJNmBJPEoQsImGt_u-B-58">
          <mxGeometry relative="1" as="geometry">
            <mxPoint x="440" y="395" as="sourcePoint" />
          </mxGeometry>
        </mxCell>
        <mxCell id="9UJNmBJPEoQsImGt_u-B-57" style="edgeStyle=orthogonalEdgeStyle;rounded=0;orthogonalLoop=1;jettySize=auto;html=1;exitX=1;exitY=0.75;exitDx=0;exitDy=0;" edge="1" parent="1" source="9UJNmBJPEoQsImGt_u-B-58">
          <mxGeometry relative="1" as="geometry">
            <mxPoint x="640" y="395" as="targetPoint" />
          </mxGeometry>
        </mxCell>
        <mxCell id="9UJNmBJPEoQsImGt_u-B-58" value="20A" style="shape=process;whiteSpace=wrap;html=1;backgroundOutline=1;" vertex="1" parent="1">
          <mxGeometry x="522.5" y="380" width="35" height="20" as="geometry" />
        </mxCell>
        <mxCell id="9UJNmBJPEoQsImGt_u-B-59" value="Ignition" style="rounded=1;whiteSpace=wrap;html=1;" vertex="1" parent="1">
          <mxGeometry x="640" y="380" width="100" height="40" as="geometry" />
        </mxCell>
        <mxCell id="9UJNmBJPEoQsImGt_u-B-61" value="87" style="edgeLabel;html=1;align=center;verticalAlign=middle;resizable=0;points=[];" vertex="1" connectable="0" parent="1">
          <mxGeometry x="457" y="310" as="geometry">
            <mxPoint x="-10" y="84" as="offset" />
          </mxGeometry>
        </mxCell>
        <mxCell id="9UJNmBJPEoQsImGt_u-B-62" style="edgeStyle=orthogonalEdgeStyle;rounded=0;orthogonalLoop=1;jettySize=auto;html=1;exitX=1;exitY=0.25;exitDx=0;exitDy=0;entryX=0;entryY=0.75;entryDx=0;entryDy=0;" edge="1" parent="1" target="9UJNmBJPEoQsImGt_u-B-64">
          <mxGeometry relative="1" as="geometry">
            <mxPoint x="440" y="495" as="sourcePoint" />
          </mxGeometry>
        </mxCell>
        <mxCell id="9UJNmBJPEoQsImGt_u-B-90" value="87" style="edgeLabel;html=1;align=center;verticalAlign=middle;resizable=0;points=[];" vertex="1" connectable="0" parent="9UJNmBJPEoQsImGt_u-B-62">
          <mxGeometry x="-0.8319" y="3" relative="1" as="geometry">
            <mxPoint as="offset" />
          </mxGeometry>
        </mxCell>
        <mxCell id="9UJNmBJPEoQsImGt_u-B-63" style="edgeStyle=orthogonalEdgeStyle;rounded=0;orthogonalLoop=1;jettySize=auto;html=1;exitX=1;exitY=0.75;exitDx=0;exitDy=0;" edge="1" parent="1" source="9UJNmBJPEoQsImGt_u-B-64">
          <mxGeometry relative="1" as="geometry">
            <mxPoint x="640" y="495" as="targetPoint" />
          </mxGeometry>
        </mxCell>
        <mxCell id="9UJNmBJPEoQsImGt_u-B-64" value="15A" style="shape=process;whiteSpace=wrap;html=1;backgroundOutline=1;" vertex="1" parent="1">
          <mxGeometry x="522.5" y="480" width="35" height="20" as="geometry" />
        </mxCell>
        <mxCell id="9UJNmBJPEoQsImGt_u-B-65" value="Injectors" style="rounded=1;whiteSpace=wrap;html=1;" vertex="1" parent="1">
          <mxGeometry x="640" y="480" width="100" height="40" as="geometry" />
        </mxCell>
        <mxCell id="9UJNmBJPEoQsImGt_u-B-71" style="edgeStyle=orthogonalEdgeStyle;rounded=0;orthogonalLoop=1;jettySize=auto;html=1;exitX=1;exitY=0.75;exitDx=0;exitDy=0;" edge="1" parent="1" source="9UJNmBJPEoQsImGt_u-B-72">
          <mxGeometry relative="1" as="geometry">
            <mxPoint x="640" y="595" as="targetPoint" />
          </mxGeometry>
        </mxCell>
        <mxCell id="9UJNmBJPEoQsImGt_u-B-72" value="3A" style="shape=process;whiteSpace=wrap;html=1;backgroundOutline=1;" vertex="1" parent="1">
          <mxGeometry x="522.5" y="580" width="35" height="20" as="geometry" />
        </mxCell>
        <mxCell id="9UJNmBJPEoQsImGt_u-B-73" value="Cam Sensor" style="rounded=1;whiteSpace=wrap;html=1;" vertex="1" parent="1">
          <mxGeometry x="640" y="580" width="100" height="30" as="geometry" />
        </mxCell>
        <mxCell id="9UJNmBJPEoQsImGt_u-B-78" style="edgeStyle=orthogonalEdgeStyle;rounded=0;orthogonalLoop=1;jettySize=auto;html=1;exitX=1;exitY=0.75;exitDx=0;exitDy=0;" edge="1" parent="1" source="9UJNmBJPEoQsImGt_u-B-79">
          <mxGeometry relative="1" as="geometry">
            <mxPoint x="640" y="635" as="targetPoint" />
          </mxGeometry>
        </mxCell>
        <mxCell id="9UJNmBJPEoQsImGt_u-B-79" value="5A" style="shape=process;whiteSpace=wrap;html=1;backgroundOutline=1;" vertex="1" parent="1">
          <mxGeometry x="522.5" y="620" width="35" height="20" as="geometry" />
        </mxCell>
        <mxCell id="9UJNmBJPEoQsImGt_u-B-80" value="Wideband" style="rounded=1;whiteSpace=wrap;html=1;" vertex="1" parent="1">
          <mxGeometry x="640" y="620" width="100" height="30" as="geometry" />
        </mxCell>
        <mxCell id="9UJNmBJPEoQsImGt_u-B-81" style="edgeStyle=orthogonalEdgeStyle;rounded=0;orthogonalLoop=1;jettySize=auto;html=1;exitX=1;exitY=0.75;exitDx=0;exitDy=0;" edge="1" parent="1" source="9UJNmBJPEoQsImGt_u-B-82">
          <mxGeometry relative="1" as="geometry">
            <mxPoint x="640" y="675" as="targetPoint" />
          </mxGeometry>
        </mxCell>
        <mxCell id="9UJNmBJPEoQsImGt_u-B-82" value="5A" style="shape=process;whiteSpace=wrap;html=1;backgroundOutline=1;" vertex="1" parent="1">
          <mxGeometry x="522.5" y="660" width="35" height="20" as="geometry" />
        </mxCell>
        <mxCell id="9UJNmBJPEoQsImGt_u-B-83" value="Idle Valve" style="rounded=1;whiteSpace=wrap;html=1;" vertex="1" parent="1">
          <mxGeometry x="640" y="660" width="100" height="30" as="geometry" />
        </mxCell>
        <mxCell id="9UJNmBJPEoQsImGt_u-B-94" style="edgeStyle=orthogonalEdgeStyle;rounded=0;orthogonalLoop=1;jettySize=auto;html=1;exitX=0;exitY=0.75;exitDx=0;exitDy=0;" edge="1" parent="1" source="9UJNmBJPEoQsImGt_u-B-26">
          <mxGeometry relative="1" as="geometry">
            <mxPoint x="98" y="159" as="targetPoint" />
          </mxGeometry>
        </mxCell>
        <mxCell id="9UJNmBJPEoQsImGt_u-B-119" value="30" style="edgeLabel;html=1;align=center;verticalAlign=middle;resizable=0;points=[];" vertex="1" connectable="0" parent="9UJNmBJPEoQsImGt_u-B-94">
          <mxGeometry x="0.8258" y="-2" relative="1" as="geometry">
            <mxPoint as="offset" />
          </mxGeometry>
        </mxCell>
        <mxCell id="9UJNmBJPEoQsImGt_u-B-98" style="edgeStyle=orthogonalEdgeStyle;rounded=0;orthogonalLoop=1;jettySize=auto;html=1;exitX=1;exitY=0.75;exitDx=0;exitDy=0;entryX=0;entryY=0.75;entryDx=0;entryDy=0;" edge="1" parent="1" source="9UJNmBJPEoQsImGt_u-B-97" target="9UJNmBJPEoQsImGt_u-B-29">
          <mxGeometry relative="1" as="geometry" />
        </mxCell>
        <mxCell id="9UJNmBJPEoQsImGt_u-B-102" value="86" style="edgeLabel;html=1;align=center;verticalAlign=middle;resizable=0;points=[];" vertex="1" connectable="0" parent="9UJNmBJPEoQsImGt_u-B-98">
          <mxGeometry x="0.6502" y="1" relative="1" as="geometry">
            <mxPoint as="offset" />
          </mxGeometry>
        </mxCell>
        <mxCell id="9UJNmBJPEoQsImGt_u-B-99" style="edgeStyle=orthogonalEdgeStyle;rounded=0;orthogonalLoop=1;jettySize=auto;html=1;exitX=1;exitY=0.75;exitDx=0;exitDy=0;entryX=0;entryY=0.75;entryDx=0;entryDy=0;" edge="1" parent="1" source="9UJNmBJPEoQsImGt_u-B-97" target="9UJNmBJPEoQsImGt_u-B-30">
          <mxGeometry relative="1" as="geometry">
            <Array as="points">
              <mxPoint x="230" y="325" />
              <mxPoint x="230" y="425" />
            </Array>
          </mxGeometry>
        </mxCell>
        <mxCell id="9UJNmBJPEoQsImGt_u-B-103" value="86" style="edgeLabel;html=1;align=center;verticalAlign=middle;resizable=0;points=[];" vertex="1" connectable="0" parent="9UJNmBJPEoQsImGt_u-B-99">
          <mxGeometry x="0.8001" y="2" relative="1" as="geometry">
            <mxPoint as="offset" />
          </mxGeometry>
        </mxCell>
        <mxCell id="9UJNmBJPEoQsImGt_u-B-100" style="edgeStyle=orthogonalEdgeStyle;rounded=0;orthogonalLoop=1;jettySize=auto;html=1;exitX=1;exitY=0.75;exitDx=0;exitDy=0;entryX=0;entryY=0.75;entryDx=0;entryDy=0;" edge="1" parent="1" source="9UJNmBJPEoQsImGt_u-B-97" target="9UJNmBJPEoQsImGt_u-B-31">
          <mxGeometry relative="1" as="geometry">
            <Array as="points">
              <mxPoint x="230" y="325" />
              <mxPoint x="230" y="525" />
            </Array>
          </mxGeometry>
        </mxCell>
        <mxCell id="9UJNmBJPEoQsImGt_u-B-104" value="86" style="edgeLabel;html=1;align=center;verticalAlign=middle;resizable=0;points=[];" vertex="1" connectable="0" parent="9UJNmBJPEoQsImGt_u-B-100">
          <mxGeometry x="0.8688" y="1" relative="1" as="geometry">
            <mxPoint as="offset" />
          </mxGeometry>
        </mxCell>
        <mxCell id="9UJNmBJPEoQsImGt_u-B-101" style="edgeStyle=orthogonalEdgeStyle;rounded=0;orthogonalLoop=1;jettySize=auto;html=1;exitX=1;exitY=0.75;exitDx=0;exitDy=0;entryX=0;entryY=0.75;entryDx=0;entryDy=0;" edge="1" parent="1" source="9UJNmBJPEoQsImGt_u-B-97" target="9UJNmBJPEoQsImGt_u-B-35">
          <mxGeometry relative="1" as="geometry">
            <Array as="points">
              <mxPoint x="230" y="325" />
              <mxPoint x="230" y="625" />
            </Array>
          </mxGeometry>
        </mxCell>
        <mxCell id="9UJNmBJPEoQsImGt_u-B-105" value="86" style="edgeLabel;html=1;align=center;verticalAlign=middle;resizable=0;points=[];" vertex="1" connectable="0" parent="9UJNmBJPEoQsImGt_u-B-101">
          <mxGeometry x="0.9001" y="4" relative="1" as="geometry">
            <mxPoint as="offset" />
          </mxGeometry>
        </mxCell>
        <mxCell id="9UJNmBJPEoQsImGt_u-B-106" value="Pin 4" style="edgeLabel;html=1;align=center;verticalAlign=middle;resizable=0;points=[];" vertex="1" connectable="0" parent="9UJNmBJPEoQsImGt_u-B-101">
          <mxGeometry x="-0.9333" relative="1" as="geometry">
            <mxPoint as="offset" />
          </mxGeometry>
        </mxCell>
        <mxCell id="9UJNmBJPEoQsImGt_u-B-97" value="ECU" style="rounded=1;whiteSpace=wrap;html=1;" vertex="1" parent="1">
          <mxGeometry x="80" y="280" width="120" height="60" as="geometry" />
        </mxCell>
        <mxCell id="9UJNmBJPEoQsImGt_u-B-108" style="edgeStyle=orthogonalEdgeStyle;rounded=0;orthogonalLoop=1;jettySize=auto;html=1;exitX=0.25;exitY=1;exitDx=0;exitDy=0;entryX=1;entryY=0.75;entryDx=0;entryDy=0;" edge="1" parent="1" source="9UJNmBJPEoQsImGt_u-B-107" target="9UJNmBJPEoQsImGt_u-B-29">
          <mxGeometry relative="1" as="geometry">
            <Array as="points">
              <mxPoint x="490" y="220" />
              <mxPoint x="490" y="325" />
            </Array>
          </mxGeometry>
        </mxCell>
        <mxCell id="9UJNmBJPEoQsImGt_u-B-112" value="85" style="edgeLabel;html=1;align=center;verticalAlign=middle;resizable=0;points=[];" vertex="1" connectable="0" parent="9UJNmBJPEoQsImGt_u-B-108">
          <mxGeometry x="0.8855" relative="1" as="geometry">
            <mxPoint x="-10" y="-5" as="offset" />
          </mxGeometry>
        </mxCell>
        <mxCell id="9UJNmBJPEoQsImGt_u-B-109" style="edgeStyle=orthogonalEdgeStyle;rounded=0;orthogonalLoop=1;jettySize=auto;html=1;exitX=0.25;exitY=1;exitDx=0;exitDy=0;entryX=1;entryY=0.75;entryDx=0;entryDy=0;" edge="1" parent="1" source="9UJNmBJPEoQsImGt_u-B-107" target="9UJNmBJPEoQsImGt_u-B-30">
          <mxGeometry relative="1" as="geometry">
            <Array as="points">
              <mxPoint x="490" y="220" />
              <mxPoint x="490" y="425" />
            </Array>
          </mxGeometry>
        </mxCell>
        <mxCell id="9UJNmBJPEoQsImGt_u-B-114" value="85" style="edgeLabel;html=1;align=center;verticalAlign=middle;resizable=0;points=[];" vertex="1" connectable="0" parent="9UJNmBJPEoQsImGt_u-B-109">
          <mxGeometry x="0.9126" relative="1" as="geometry">
            <mxPoint x="-12" y="-5" as="offset" />
          </mxGeometry>
        </mxCell>
        <mxCell id="9UJNmBJPEoQsImGt_u-B-110" style="edgeStyle=orthogonalEdgeStyle;rounded=0;orthogonalLoop=1;jettySize=auto;html=1;exitX=0.25;exitY=1;exitDx=0;exitDy=0;entryX=1;entryY=0.75;entryDx=0;entryDy=0;" edge="1" parent="1" source="9UJNmBJPEoQsImGt_u-B-107" target="9UJNmBJPEoQsImGt_u-B-31">
          <mxGeometry relative="1" as="geometry" />
        </mxCell>
        <mxCell id="9UJNmBJPEoQsImGt_u-B-115" value="85" style="edgeLabel;html=1;align=center;verticalAlign=middle;resizable=0;points=[];" vertex="1" connectable="0" parent="9UJNmBJPEoQsImGt_u-B-110">
          <mxGeometry x="0.9163" y="-2" relative="1" as="geometry">
            <mxPoint x="-14" y="-3" as="offset" />
          </mxGeometry>
        </mxCell>
        <mxCell id="9UJNmBJPEoQsImGt_u-B-111" style="edgeStyle=orthogonalEdgeStyle;rounded=0;orthogonalLoop=1;jettySize=auto;html=1;exitX=0.25;exitY=1;exitDx=0;exitDy=0;entryX=1;entryY=0.75;entryDx=0;entryDy=0;" edge="1" parent="1" source="9UJNmBJPEoQsImGt_u-B-107" target="9UJNmBJPEoQsImGt_u-B-35">
          <mxGeometry relative="1" as="geometry" />
        </mxCell>
        <mxCell id="9UJNmBJPEoQsImGt_u-B-116" value="85" style="edgeLabel;html=1;align=center;verticalAlign=middle;resizable=0;points=[];" vertex="1" connectable="0" parent="9UJNmBJPEoQsImGt_u-B-111">
          <mxGeometry x="0.9402" relative="1" as="geometry">
            <mxPoint x="-13" y="-5" as="offset" />
          </mxGeometry>
        </mxCell>
        <mxCell id="9UJNmBJPEoQsImGt_u-B-107" value="12v Ign Switched" style="rounded=1;whiteSpace=wrap;html=1;" vertex="1" parent="1">
          <mxGeometry x="440" y="160" width="120" height="60" as="geometry" />
        </mxCell>
        <mxCell id="9UJNmBJPEoQsImGt_u-B-123" style="edgeStyle=orthogonalEdgeStyle;rounded=0;orthogonalLoop=1;jettySize=auto;html=1;exitX=0.25;exitY=0;exitDx=0;exitDy=0;entryX=0.817;entryY=0.017;entryDx=0;entryDy=0;entryPerimeter=0;" edge="1" parent="1" source="9UJNmBJPEoQsImGt_u-B-107" target="9UJNmBJPEoQsImGt_u-B-28">
          <mxGeometry relative="1" as="geometry" />
        </mxCell>
        <mxCell id="9UJNmBJPEoQsImGt_u-B-124" value="85" style="edgeLabel;html=1;align=center;verticalAlign=middle;resizable=0;points=[];" vertex="1" connectable="0" parent="9UJNmBJPEoQsImGt_u-B-123">
          <mxGeometry x="0.9338" y="-1" relative="1" as="geometry">
            <mxPoint as="offset" />
          </mxGeometry>
        </mxCell>
        <mxCell id="9UJNmBJPEoQsImGt_u-B-125" value="" style="endArrow=none;html=1;rounded=0;" edge="1" parent="1">
          <mxGeometry width="50" height="50" relative="1" as="geometry">
            <mxPoint x="230" y="220" as="sourcePoint" />
            <mxPoint x="230" y="270" as="targetPoint" />
          </mxGeometry>
        </mxCell>
        <mxCell id="9UJNmBJPEoQsImGt_u-B-126" value="" style="endArrow=none;html=1;rounded=0;" edge="1" parent="1">
          <mxGeometry width="50" height="50" relative="1" as="geometry">
            <mxPoint x="240" y="260" as="sourcePoint" />
            <mxPoint x="240" y="230" as="targetPoint" />
          </mxGeometry>
        </mxCell>
        <mxCell id="9UJNmBJPEoQsImGt_u-B-127" value="" style="endArrow=none;html=1;rounded=0;" edge="1" parent="1">
          <mxGeometry width="50" height="50" relative="1" as="geometry">
            <mxPoint x="250" y="250" as="sourcePoint" />
            <mxPoint x="250" y="240" as="targetPoint" />
          </mxGeometry>
        </mxCell>
      </root>
    </mxGraphModel>
  </diagram>
</mxfile>
